<?xml version="1.0" encoding="utf-8"?>
<!-- Created by UniConvertor 2.0rc5 (https://sk1project.net/) -->
<svg xmlns="http://www.w3.org/2000/svg" height="830.0pt" viewBox="0 0 830.0 830.0" width="830.0pt" version="1.1" xmlns:xlink="http://www.w3.org/1999/xlink" id="1043a7b2-29b0-11ef-a2ad-fd3a18c2dce1">

<g>
	<path style="fill:#000000;" d="M 0.0,415.0 L 0.0,830.0 415.0,830.0 830.0,830.0 830.0,415.0 830.0,0.0 415.0,0.0 0.0,0.0 0.0,415.0 Z M 416.3,116.9 C 419.3,118.0 424.5,120.2 427.7,121.9 434.3,125.5 470.8,143.0 471.5,143.0 471.8,143.0 478.9,146.3 487.2,150.4 511.3,162.0 526.7,169.4 537.5,174.5 543.0,177.1 558.8,184.6 572.5,191.2 586.3,197.8 600.9,204.8 605.0,206.7 609.1,208.7 617.1,212.5 622.6,215.1 628.2,217.8 633.1,220.0 633.4,220.0 635.6,220.0 646.6,228.9 650.0,233.3 655.5,240.6 656.5,243.5 661.5,265.8 664.0,276.7 666.2,286.2 666.4,287.0 666.8,288.2 676.9,332.2 678.5,339.5 678.7,340.6 679.4,343.3 680.0,345.5 680.6,347.7 683.5,360.5 686.6,374.0 689.6,387.5 692.3,399.2 692.5,400.0 692.7,400.8 695.9,414.5 699.5,430.5 703.1,446.4 706.3,460.2 706.5,461.0 709.7,471.5 712.1,486.3 711.7,492.5 711.1,500.4 708.2,509.2 704.8,513.1 703.5,514.6 699.6,519.5 696.0,524.0 692.4,528.5 688.0,533.9 686.3,536.0 684.5,538.1 683.0,540.1 683.0,540.5 683.0,540.9 682.2,542.0 681.2,542.9 679.7,544.3 674.2,551.0 668.2,558.7 667.3,559.9 665.2,562.4 663.7,564.2 662.1,566.0 659.0,570.0 656.7,573.0 654.4,576.0 652.0,578.9 651.4,579.5 650.8,580.0 648.8,582.5 646.9,585.0 645.1,587.5 643.1,590.0 642.5,590.6 642.0,591.2 640.4,593.2 639.0,595.0 637.6,596.8 636.0,598.8 635.5,599.4 634.9,600.0 631.7,603.9 628.5,608.0 625.2,612.1 622.3,615.7 622.0,616.0 621.7,616.3 619.5,619.2 617.0,622.5 614.5,625.8 612.2,628.6 611.8,628.8 611.5,629.0 608.3,632.8 604.9,637.3 601.4,641.8 598.3,645.7 598.0,646.0 597.3,646.7 593.1,651.9 590.0,656.0 588.6,657.8 586.8,660.1 586.0,661.0 585.2,662.0 583.4,664.2 582.0,665.9 580.6,667.6 578.3,670.5 576.7,672.3 575.2,674.0 570.7,679.8 566.7,685.0 562.8,690.2 558.8,695.2 558.0,696.1 546.6,708.7 542.5,711.7 532.9,714.4 527.9,715.9 514.2,716.0 399.9,715.8 275.6,715.5 272.4,715.5 267.7,713.5 260.1,710.4 254.1,705.2 244.7,693.5 235.1,681.6 230.4,675.8 228.0,673.0 227.2,672.1 225.4,669.8 224.0,668.0 221.2,664.2 215.9,657.7 212.7,654.0 211.5,652.6 210.1,650.8 209.5,649.9 208.5,648.2 189.4,624.4 187.5,622.4 187.0,621.8 185.4,619.8 184.0,617.9 182.6,616.0 180.3,613.2 178.7,611.7 177.2,610.1 176.0,608.5 176.0,608.2 176.0,607.8 174.5,605.9 172.7,603.9 171.0,601.8 168.8,599.4 168.0,598.4 164.4,593.9 158.4,586.4 157.3,585.0 156.7,584.2 153.7,580.5 150.8,576.9 147.9,573.3 144.4,568.8 143.0,567.0 141.6,565.2 139.2,562.2 137.5,560.3 135.9,558.5 132.9,555.0 131.0,552.4 129.1,549.9 126.8,547.0 126.0,546.1 125.2,545.1 123.4,542.8 122.0,541.0 120.6,539.1 118.2,536.0 116.5,534.0 114.9,532.0 111.9,528.5 110.0,526.1 108.1,523.7 106.1,521.3 105.5,520.6 99.5,513.8 94.7,504.6 93.0,496.7 91.8,490.6 92.2,484.6 94.5,475.0 97.6,462.3 100.1,451.6 103.5,436.0 105.6,426.9 107.8,417.0 108.6,414.0 109.3,411.0 112.2,398.4 115.0,386.0 117.8,373.6 120.8,361.1 121.6,358.1 122.4,355.2 123.3,351.6 123.6,350.1 124.1,347.2 136.8,291.4 137.5,289.0 137.7,288.2 139.9,278.5 142.4,267.5 147.4,245.2 148.8,240.5 152.2,235.8 158.0,227.7 162.3,224.9 187.5,212.6 201.3,205.9 215.9,198.8 220.0,197.0 224.1,195.1 227.8,193.2 228.1,192.7 228.4,192.2 228.9,191.9 229.1,192.0 229.3,192.1 235.2,189.5 242.2,186.2 249.2,182.9 255.9,179.9 257.0,179.5 258.1,179.2 259.0,178.5 259.0,178.1 259.0,177.7 259.6,177.3 260.3,177.3 260.9,177.3 270.4,172.9 281.3,167.6 292.2,162.3 301.3,158.0 301.5,158.0 301.7,158.0 309.4,154.4 318.7,149.9 379.9,120.4 385.3,117.8 389.5,116.4 395.7,114.4 409.7,114.7 416.3,116.9 Z" />
</g>
</svg>